<svg xmlns="http://www.w3.org/2000/svg" xmlns:xlink="http://www.w3.org/1999/xlink" viewBox="0 0 36 36"><defs><linearGradient id="Sfumatura_senza_nome" x1="2.02" y1="-4929.32" x2="35.64" y2="-4941.27" gradientTransform="matrix(1, 0, 0, -1, 0, -4917)" gradientUnits="userSpaceOnUse"><stop offset="0" stop-color="#f05a28"/><stop offset="1" stop-color="#e80a89"/></linearGradient></defs><title>Risorsa 1</title><g id="Livello_2" data-name="Livello 2"><g id="Layer_1" data-name="Layer 1"><circle cx="18" cy="18" r="18" style="fill:url(#Sfumatura_senza_nome)"/><circle cx="10" cy="18" r="1.37" style="fill:#fff"/><circle cx="10" cy="11.95" r="1.37" style="fill:#fff"/><circle cx="10" cy="24.05" r="1.37" style="fill:#fff"/><path d="M26.58,17.22H14.85a.78.78,0,0,0,0,1.56H26.58a.78.78,0,1,0,0-1.56Zm0,6H14.85a.78.78,0,0,0,0,1.56H26.58a.78.78,0,1,0,0-1.56ZM14.85,12.73H26.58a.78.78,0,1,0,0-1.56H14.85a.78.78,0,0,0,0,1.56Z" style="fill:#fff"/></g></g></svg>