<svg xmlns="http://www.w3.org/2000/svg" xmlns:xlink="http://www.w3.org/1999/xlink" viewBox="0 0 36 36"><defs><linearGradient id="Sfumatura_senza_nome" x1="2.02" y1="-4929.32" x2="35.64" y2="-4941.27" gradientTransform="matrix(1, 0, 0, -1, 0, -4917)" gradientUnits="userSpaceOnUse"><stop offset="0" stop-color="#f05a28"/><stop offset="1" stop-color="#e80a89"/></linearGradient></defs><title>Risorsa 2</title><g id="Livello_2" data-name="Livello 2"><g id="Layer_1" data-name="Layer 1"><circle cx="18" cy="18" r="18" style="fill:url(#Sfumatura_senza_nome)"/><path d="M27.72,17.77h0L18.61,8.66a.67.67,0,0,0-.94,0l-3.1,3.1L10.24,7.43a.67.67,0,0,0-.94.94l4.33,4.33L8.35,18a2.52,2.52,0,0,0,0,3.56L14.84,28a2.5,2.5,0,0,0,1.78.73h0A2.5,2.5,0,0,0,18.4,28l5.81-5.81a4.83,4.83,0,0,0-.1,1,3.14,3.14,0,0,0,3.13,3.13h0a3.14,3.14,0,0,0,3.13-3.13C30.38,20.46,27.83,17.88,27.72,17.77ZM17.46,27.09a1.19,1.19,0,0,1-1.67,0L9.3,20.6a1.19,1.19,0,0,1,0-1.67l5.27-5.27,2.64,2.64a2.15,2.15,0,1,0,.94-.94l-2.64-2.64,2.63-2.63,8.16,8.16Zm1.66-10.64a.81.81,0,1,1-.57.24A.81.81,0,0,1,19.12,16.45ZM27.25,25a1.8,1.8,0,0,1-1.8-1.8,7,7,0,0,1,1.8-3.93A7,7,0,0,1,29,23.17,1.8,1.8,0,0,1,27.25,25Z" style="fill:#fff"/></g></g></svg>