<svg xmlns="http://www.w3.org/2000/svg" xmlns:xlink="http://www.w3.org/1999/xlink" viewBox="0 0 36 36"><defs><linearGradient id="Sfumatura_senza_nome" x1="2.02" y1="-4929.32" x2="35.64" y2="-4941.27" gradientTransform="matrix(1, 0, 0, -1, 0, -4917)" gradientUnits="userSpaceOnUse"><stop offset="0" stop-color="#f05a28"/><stop offset="1" stop-color="#e80a89"/></linearGradient></defs><title>Risorsa 4</title><g id="Livello_2" data-name="Livello 2"><g id="Layer_1" data-name="Layer 1"><circle cx="18" cy="18" r="18" style="fill:url(#Sfumatura_senza_nome)"/><path d="M27.74,9H8.26a.77.77,0,0,0-.77.77V26.24a.77.77,0,0,0,.77.77H27.74a.77.77,0,0,0,.77-.77V9.76A.77.77,0,0,0,27.74,9Zm-.46,1.23v.92l-7.2,0a.76.76,0,0,0-.52.2l-1,.94H8.73V10.22ZM8.73,25.78V13.54h10a.76.76,0,0,0,.52-.2l1-.95,7,0V25.78Z" style="fill:#fff"/><path d="M11.48,11.4v.06l0,.06,0,.05,0,.05,0,0,0,0,0,0,0,0,.05,0,.05,0,.06,0h.36l.06,0,.05,0,.05,0,0,0,0,0,0,0,0,0,0-.05,0-.05,0-.06v-.12a.64.64,0,0,0,0-.12V11.1l0-.06,0-.05,0-.05,0,0,0,0,0,0,0,0-.05,0-.05,0-.06,0h-.36l-.06,0-.05,0-.05,0,0,0,0,0,0,0,0,0,0,.05,0,.05,0,.06v.12a.55.55,0,0,0,0,.12Z" style="fill:#fff"/><path d="M9.73,11.76l0,0,.05,0,.05,0,.06,0h.36l.06,0,.05,0,.05,0,0,0,0,0,0,0,0,0,0-.05,0-.05,0-.06v-.12a.59.59,0,0,0,0-.06.59.59,0,0,0,0-.06V11.1l0-.06,0-.05,0-.05,0,0,0,0,0,0,0,0-.05,0-.05,0-.06,0H9.94l-.06,0-.05,0-.05,0,0,0,0,0,0,0,0,0,0,.05,0,.05,0,.06v.12a.59.59,0,0,0,0,.06.62.62,0,0,0,.18.44Z" style="fill:#fff"/><path d="M13.49,11.4v.06l0,.06,0,.05,0,.05,0,0,0,0,0,0,0,0,.05,0,.05,0,.06,0h.36l.06,0,.05,0,.05,0,0,0,0,0,0,0,0,0,0-.05,0-.05,0-.06v-.12a.64.64,0,0,0,0-.12V11.1l0-.06,0-.05,0-.05,0,0,0,0,0,0,0,0-.05,0-.05,0-.06,0h-.36l-.06,0-.05,0-.05,0,0,0,0,0,0,0,0,0,0,.05,0,.05,0,.06v.12a.57.57,0,0,0,0,.12Z" style="fill:#fff"/><path d="M15.43,16.72a.62.62,0,0,0-.87,0L12,19.14a.64.64,0,0,0,0,.94l2.59,2.45a.62.62,0,0,0,.84-.9l-2.14-2,2.14-2A.62.62,0,0,0,15.43,16.72Z" style="fill:#fff"/><path d="M19.32,16.58a.62.62,0,0,0-.81.31l-2.2,4.93a.62.62,0,1,0,1.12.5l2.2-4.93A.62.62,0,0,0,19.32,16.58Z" style="fill:#fff"/><path d="M21.44,16.69a.62.62,0,1,0-.84.9l2.14,2-2.14,2a.62.62,0,1,0,.84.9L24,20.07a.64.64,0,0,0,0-.94Z" style="fill:#fff"/></g></g></svg>