<svg xmlns="http://www.w3.org/2000/svg" xmlns:xlink="http://www.w3.org/1999/xlink" viewBox="0 0 36 36"><defs><linearGradient id="Sfumatura_senza_nome" x1="2.02" y1="-4929.32" x2="35.64" y2="-4941.27" gradientTransform="matrix(1, 0, 0, -1, 0, -4917)" gradientUnits="userSpaceOnUse"><stop offset="0" stop-color="#f05a28"/><stop offset="1" stop-color="#e80a89"/></linearGradient></defs><title>Risorsa 6</title><g id="Livello_2" data-name="Livello 2"><g id="Layer_1" data-name="Layer 1"><circle cx="18" cy="18" r="18" style="fill:url(#Sfumatura_senza_nome)"/><path d="M26.62,21.11H26V11.83a.62.62,0,0,0-.18-.43L22.15,7.72a.61.61,0,0,0-.43-.18H10.6a.61.61,0,0,0-.61.61v3.06H9.38a1.84,1.84,0,0,0-1.84,1.84v2.45a1.84,1.84,0,0,0,1.84,1.84H10v10.5a.61.61,0,0,0,.61.61H25.4a.61.61,0,0,0,.61-.61v-.61h.61a1.84,1.84,0,0,0,1.84-1.84V22.94A1.84,1.84,0,0,0,26.62,21.11Zm.61,1.84v.72a1.83,1.83,0,0,0-.61-.11H22.94a.61.61,0,0,0-.61.61v.08l-2-1.31,2-1.31v.08a.61.61,0,0,0,.61.61h3.68A.61.61,0,0,1,27.24,22.94ZM22.33,9.63l1.58,1.58H22.33Zm-13,2.81h3.68a.61.61,0,0,0,.61-.61v-.09l2,1.31-2,1.31v-.09a.61.61,0,0,0-.61-.61H9.38a1.83,1.83,0,0,0-.61.11v-.72A.61.61,0,0,1,9.38,12.44Zm0,3.68a.61.61,0,0,1,0-1.23H10v1.23ZM24.78,27.24H11.22V14.89h1.23v.61a.61.61,0,0,0,1,.51l3.72-2.45a.61.61,0,0,0,0-1l-3.72-2.45a.61.61,0,0,0-1,.51v.61H11.22V8.76h9.89v3.06a.61.61,0,0,0,.61.61h3.06v8.66H23.56v-.61a.61.61,0,0,0-1-.51l-3.68,2.45a.61.61,0,0,0,0,1l3.68,2.45a.61.61,0,0,0,1-.51v-.61h1.23ZM26.62,26H26V24.78h.61a.61.61,0,1,1,0,1.23Z" style="fill:#fff"/></g></g></svg>