<svg xmlns="http://www.w3.org/2000/svg" xmlns:xlink="http://www.w3.org/1999/xlink" viewBox="0 0 36 36"><defs><linearGradient id="Sfumatura_senza_nome" x1="2.02" y1="-4929.32" x2="35.64" y2="-4941.27" gradientTransform="matrix(1, 0, 0, -1, 0, -4917)" gradientUnits="userSpaceOnUse"><stop offset="0" stop-color="#f05a28"/><stop offset="1" stop-color="#e80a89"/></linearGradient></defs><title>Risorsa 5</title><g id="Livello_2" data-name="Livello 2"><g id="Layer_1" data-name="Layer 1"><circle cx="18" cy="18" r="18" style="fill:url(#Sfumatura_senza_nome)"/><g id="surface1"><path d="M27.29,13v0c0-.21,0-.43,0-.68A2.32,2.32,0,0,0,25.09,10,9,9,0,0,1,19,7.45h0a1.4,1.4,0,0,0-1.9,0h0A9,9,0,0,1,10.91,10,2.32,2.32,0,0,0,8.73,12.3c0,.25,0,.47,0,.68v0c0,2.56-.11,5.76,1,8.65a11,11,0,0,0,2.64,4.12,13.82,13.82,0,0,0,5.17,3.06l.21.06a1.57,1.57,0,0,0,.62,0l.21-.06a13.83,13.83,0,0,0,5.17-3.06,11,11,0,0,0,2.64-4.12C27.4,18.76,27.34,15.57,27.29,13Zm-2.17,8.23c-1.13,3.05-3.42,5.15-7,6.41H17.9c-3.61-1.26-5.91-3.35-7-6.41A22.37,22.37,0,0,1,10,13h0c0-.22,0-.45,0-.71a1,1,0,0,1,1-1,11.26,11.26,0,0,0,3.82-.84,10,10,0,0,0,3.11-2.09.12.12,0,0,1,.16,0,10,10,0,0,0,3.11,2.09,11.26,11.26,0,0,0,3.82.84,1,1,0,0,1,1,1c0,.26,0,.49,0,.71A22.38,22.38,0,0,1,25.12,21.23Z" style="fill:#fff"/><path d="M18,12.55A5.45,5.45,0,1,0,23.45,18,5.46,5.46,0,0,0,18,12.55Zm0,9.62A4.17,4.17,0,1,1,22.17,18,4.17,4.17,0,0,1,18,22.17Z" style="fill:#fff"/><path d="M19.57,16.31,17,18.84l-.69-.69a.64.64,0,1,0-.91.91l1.14,1.14a.64.64,0,0,0,.91,0l3-3a.64.64,0,0,0-.91-.91Z" style="fill:#fff"/></g></g></g></svg>