<svg xmlns="http://www.w3.org/2000/svg" xmlns:xlink="http://www.w3.org/1999/xlink" viewBox="0 0 36 36"><defs><linearGradient id="Sfumatura_senza_nome" x1="2.02" y1="-4929.32" x2="35.64" y2="-4941.27" gradientTransform="matrix(1, 0, 0, -1, 0, -4917)" gradientUnits="userSpaceOnUse"><stop offset="0" stop-color="#f05a28"/><stop offset="1" stop-color="#e80a89"/></linearGradient></defs><title>Risorsa 7</title><g id="Livello_2" data-name="Livello 2"><g id="Layer_1" data-name="Layer 1"><circle cx="18" cy="18" r="18" style="fill:url(#Sfumatura_senza_nome)"/><path d="M28,10.44a6.62,6.62,0,0,0-9.37,0L18,11.1l-.66-.66A6.62,6.62,0,1,0,8,19.79l9.53,9.53a.68.68,0,0,0,1,0L28,19.81a6.64,6.64,0,0,0,0-9.37Zm-1,8.4-9.06,9-9-9a5.25,5.25,0,1,1,7.43-7.43l1.15,1.15a.68.68,0,0,0,1,0l1.14-1.14a5.25,5.25,0,0,1,7.43,7.43Z" style="fill:#fff"/></g></g></svg>