<svg xmlns="http://www.w3.org/2000/svg" xmlns:xlink="http://www.w3.org/1999/xlink" viewBox="0 0 136.78 36"><defs><linearGradient id="Sfumatura_senza_nome_2" x1="-863.28" y1="2449.24" x2="-862.34" y2="2448.91" gradientTransform="matrix(36, 0, 0, -36, 31080, 88185)" gradientUnits="userSpaceOnUse"><stop offset="0" stop-color="#f05a28"/><stop offset="1" stop-color="#e80a89"/></linearGradient><linearGradient id="Sfumatura_senza_nome_2-2" x1="-727.03" y1="2067.07" x2="-726.1" y2="2066.73" gradientTransform="matrix(5.5, 0, 0, -5.5, 4053, 11386.25)" xlink:href="#Sfumatura_senza_nome_2"/></defs><title>Risorsa 1</title><g id="Livello_2" data-name="Livello 2"><g id="Livello_1-2" data-name="Livello 1"><g id="Welcome"><g id="Header"><g id="Logo"><g id="logo-2" data-name="logo"><circle id="Oval" cx="18" cy="18" r="18" style="fill:url(#Sfumatura_senza_nome_2)"/><path id="Shape" d="M26.8,16.1,17,6.3a1.82,1.82,0,0,0-1.4-.6,2,2,0,0,0-2,2,2,2,0,0,0,.6,1.4l8.5,8.5-8.5,8.5a2,2,0,0,0-.6,1.4,2,2,0,0,0,2,2,2,2,0,0,0,1.4-.6L26.9,19a1.68,1.68,0,0,0,.6-1.4A2,2,0,0,0,26.8,16.1Z" style="fill:#fafafa"/><path id="Shape-2" data-name="Shape" d="M11.6,22.4a1.82,1.82,0,0,1-.4-2.5l4.5-4.5a1.82,1.82,0,0,1,2.5.4,1.82,1.82,0,0,1,.4,2.5l-4.5,4.5A1.82,1.82,0,0,1,11.6,22.4Z" style="fill:#fff"/></g><g id="Logo-Name"><g id="F-RIVOLTA" style="isolation:isolate"><g style="isolation:isolate"><path d="M45.09,24.5V11.86h8.23V14.2H48.17v2.72H52v2.34H48.17V24.5Z" style="fill:#fff"/><path d="M63.92,19.59V24.5H60.84V11.86h5A4.84,4.84,0,0,1,69.25,13a3.6,3.6,0,0,1,1.22,2.74,3.94,3.94,0,0,1-.67,2.14,3.63,3.63,0,0,1-2.18,1.48l3.1,5.15h-3.6l-2.84-4.91Zm0-5.38v3h1.91a1.48,1.48,0,0,0,1.11-.41,1.49,1.49,0,0,0,.41-1.09,1.54,1.54,0,0,0-.41-1.11,1.45,1.45,0,0,0-1.1-.43Z" style="fill:#fff"/><path d="M72.87,24.5V11.86h3.08V24.5Z" style="fill:#fff"/><path d="M81.9,24.5,77.42,11.86H80.7l3.13,9.63L87,11.86h3.28L85.75,24.5Z" style="fill:#fff"/><path d="M92.86,22.79A6.22,6.22,0,0,1,91,18.15a6.19,6.19,0,0,1,1.88-4.64,6.37,6.37,0,0,1,4.61-1.83,6.3,6.3,0,0,1,4.59,1.83,6.22,6.22,0,0,1,1.86,4.64A6.23,6.23,0,0,1,102,22.79a6.67,6.67,0,0,1-9.19,0Zm7-2a3.76,3.76,0,0,0,.91-2.65,3.76,3.76,0,0,0-.91-2.65,3.48,3.48,0,0,0-4.86,0,3.76,3.76,0,0,0-.91,2.65A3.76,3.76,0,0,0,95,20.79a3.48,3.48,0,0,0,4.86,0Z" style="fill:#fff"/><path d="M105.9,11.86H109v10.3h3.83V24.5H105.9Z" style="fill:#fff"/><path d="M113.65,14.2V11.86h10V14.2h-3.46V24.5h-3.08V14.2Z" style="fill:#fff"/><path d="M133.49,24.5l-.7-2.12h-4.54l-.7,2.12h-3.28l4.39-12.67h3.74l4.37,12.67ZM129,20h3l-1.49-4.5Z" style="fill:#fff"/></g></g><circle id="Oval-2" data-name="Oval" cx="56.75" cy="18.25" r="2.75" style="fill:url(#Sfumatura_senza_nome_2-2)"/></g></g></g></g></g></g></svg>