<svg xmlns="http://www.w3.org/2000/svg" xmlns:xlink="http://www.w3.org/1999/xlink" viewBox="0 0 384 384"><defs><linearGradient id="Sfumatura_senza_nome_2" y1="192" x2="384" y2="192" gradientUnits="userSpaceOnUse"><stop offset="0" stop-color="#f05a28"/><stop offset="1" stop-color="#e80a89"/></linearGradient><linearGradient id="Sfumatura_senza_nome_2-2" x1="96" y1="176" x2="320" y2="176" xlink:href="#Sfumatura_senza_nome_2"/></defs><title>Risorsa 1</title><g id="Livello_2" data-name="Livello 2"><g id="Livello_1-2" data-name="Livello 1"><path d="M272,32a80.24,80.24,0,0,1,80,80V272a80.24,80.24,0,0,1-80,80H112a80.24,80.24,0,0,1-80-80V112a80.24,80.24,0,0,1,80-80H272m0-32H112C50.4,0,0,50.4,0,112V272c0,61.6,50.4,112,112,112H272c61.6,0,112-50.4,112-112V112C384,50.4,333.6,0,272,0Z" style="fill:url(#Sfumatura_senza_nome_2)"/><path d="M296,112a24,24,0,1,1,24-24A23.94,23.94,0,0,1,296,112ZM192,128a64,64,0,1,1-64,64,64.06,64.06,0,0,1,64-64m0-32a96,96,0,1,0,96,96A96,96,0,0,0,192,96Z" style="fill:url(#Sfumatura_senza_nome_2-2)"/></g></g></svg>