<svg xmlns="http://www.w3.org/2000/svg" xmlns:xlink="http://www.w3.org/1999/xlink" viewBox="0 0 383.9 383.9"><defs><linearGradient id="Sfumatura_senza_nome_2" y1="191.95" x2="383.9" y2="191.95" gradientUnits="userSpaceOnUse"><stop offset="0" stop-color="#f05a28"/><stop offset="1" stop-color="#e80a89"/></linearGradient></defs><title>Risorsa 1</title><g id="Livello_2" data-name="Livello 2"><g id="Livello_1-2" data-name="Livello 1"><path d="M353.2,0H32.8C15.3,0,0,12.6,0,29.9V351c0,17.4,15.3,32.9,32.8,32.9H353.1c17.6,0,30.8-15.6,30.8-32.9V29.9C384,12.6,370.7,0,353.2,0ZM119,320H64V149h55ZM93.4,123H93c-17.6,0-29-13.1-29-29.5C64,76.8,75.7,64,93.7,64s29,12.7,29.4,29.5C123.1,109.9,111.7,123,93.4,123ZM320,320H265V226.5c0-22.4-8-37.7-27.9-37.7-15.2,0-24.2,10.3-28.2,20.3-1.5,3.6-1.9,8.5-1.9,13.5V320H152V149h55v23.8c8-11.4,20.5-27.8,49.6-27.8,36.1,0,63.4,23.8,63.4,75.1Z" style="fill:url(#Sfumatura_senza_nome_2)"/></g></g></svg>